<svg width="500" height="500" viewBox="0 0 500 500" fill="none" xmlns="http://www.w3.org/2000/svg">
<g clip-path="url(#clip0_1944_262)">
<path d="M250 500C388.071 500 500 388.071 500 250C500 111.929 388.071 0 250 0C111.929 0 0 111.929 0 250C0 388.071 111.929 500 250 500Z" fill="#11111b"/>
<path d="M82.8785 342.303C78.5237 342.303 75.0037 338.643 75.0037 334.134C74.8512 311.28 79.3842 288.656 88.2974 267.756C96.7171 246.687 109.227 227.644 125.043 211.81C196.045 145.397 303.937 145.397 374.948 211.81C390.765 227.644 403.275 246.687 411.702 267.756C420.617 288.656 425.149 311.28 424.996 334.134C424.996 338.634 421.469 342.285 417.131 342.285L82.8785 342.303Z" fill="#fab387"/>
</g>
<defs>
<clipPath id="clip0_1944_262">
<rect width="500" height="500" fill="#11111b"/>
</clipPath>
</defs>
</svg>
